<svg xmlns="http://www.w3.org/2000/svg" viewBox="0 0 64 64"><path fill="#88e2de" d="M25.024,49.089V27.9a1.5,1.5,0,0,1,3,0V49.089a1.5,1.5,0,0,1-3,0Zm12.452,1.5a1.5,1.5,0,0,0,1.5-1.5V27.9a1.5,1.5,0,0,0-3,0V49.089A1.5,1.5,0,0,0,37.476,50.589ZM48.241,19.356V56.64a1.5,1.5,0,0,1-1.5,1.5H17.259a1.5,1.5,0,0,1-1.5-1.5V19.356a1.5,1.5,0,0,1,1.5-1.5H46.741A1.5,1.5,0,0,1,48.241,19.356Zm-3,1.5H20.76V54.14H45.241Zm5.528-8.216a1.5,1.5,0,0,1-1.5,1.5H14.731a1.5,1.5,0,0,1,0-3H25.024V7.36a1.5,1.5,0,0,1,1.5-1.5H37.476a1.5,1.5,0,0,1,1.5,1.5v3.78H49.269A1.5,1.5,0,0,1,50.769,12.64Zm-22.745-1.5h7.952V8.86H28.024Z"/></svg>